<svg width="391" height="153" viewBox="0 0 391 153" fill="none" xmlns="http://www.w3.org/2000/svg">
<path d="M388 88C335.5 140.565 272 164.012 188.113 140.565C104.226 117.117 3 127.307 3 75.3252C3 23.3437 43.4949 3 138.5 3C206.571 3 388 36.0184 388 88Z" fill="#EB6A67" stroke="white" stroke-width="5"/>
<path d="M45.7578 76.584L51.084 57.4062H55.6895L47.7793 83H43.7539L35.8613 57.4062H40.4668L45.7578 76.584ZM60.2598 63.9805H70.4023V79.5195H76.0449V83H60.2598V79.5195H66.166V67.4785H60.2598V63.9805ZM65.8145 59.0586C65.8145 58.4023 66.0254 57.8633 66.4473 57.4414C66.8691 57.0078 67.4609 56.791 68.2227 56.791C68.9961 56.791 69.5938 57.0078 70.0156 57.4414C70.4492 57.8633 70.666 58.4023 70.666 59.0586C70.666 59.7148 70.4492 60.2598 70.0156 60.6934C69.5938 61.1152 68.9961 61.3262 68.2227 61.3262C67.4609 61.3262 66.8691 61.1152 66.4473 60.6934C66.0254 60.2598 65.8145 59.7148 65.8145 59.0586ZM89.8262 83.3516C88.4199 83.3516 87.1367 83.1172 85.9766 82.6484C84.8164 82.1797 83.8203 81.5352 82.9883 80.7148C82.168 79.8945 81.5293 78.9277 81.0723 77.8145C80.6152 76.6895 80.3867 75.4766 80.3867 74.1758V73.4551C80.3867 71.9434 80.627 70.584 81.1074 69.377C81.5996 68.1699 82.25 67.1387 83.0586 66.2832C83.8789 65.4277 84.8281 64.7715 85.9062 64.3145C86.9961 63.8574 88.1387 63.6289 89.334 63.6289C90.7168 63.6289 91.9355 63.8633 92.9902 64.332C94.0449 64.7891 94.9238 65.4395 95.627 66.2832C96.3418 67.1152 96.8809 68.1055 97.2441 69.2539C97.6074 70.4023 97.7891 71.6621 97.7891 73.0332V74.8086H84.6055C84.6758 75.5469 84.8574 76.2324 85.1504 76.8652C85.4434 77.498 85.8242 78.0488 86.293 78.5176C86.7734 78.9746 87.3301 79.3379 87.9629 79.6074C88.6074 79.8652 89.3105 79.9941 90.0723 79.9941C91.1387 79.9941 92.1172 79.7832 93.0078 79.3613C93.9102 78.9395 94.6426 78.3594 95.2051 77.6211L97.4902 79.7656C97.1855 80.2227 96.793 80.668 96.3125 81.1016C95.832 81.5234 95.2695 81.9043 94.625 82.2441C93.9805 82.5723 93.2539 82.8359 92.4453 83.0352C91.6484 83.2461 90.7754 83.3516 89.8262 83.3516ZM89.3164 67.0215C88.7305 67.0215 88.1855 67.127 87.6816 67.3379C87.1777 67.5488 86.7266 67.8594 86.3281 68.2695C85.9297 68.668 85.5898 69.1602 85.3086 69.7461C85.0391 70.3203 84.8457 70.9766 84.7285 71.7148H93.6406V71.3984C93.6055 70.8359 93.4941 70.2969 93.3066 69.7812C93.1309 69.2539 92.8672 68.7852 92.5156 68.375C92.1641 67.9648 91.7188 67.6367 91.1797 67.3906C90.6523 67.1445 90.0312 67.0215 89.3164 67.0215ZM106.191 76.7422L106.314 77.9551L106.508 76.7422L109.232 63.9805H111.992L114.752 76.8828L114.945 78.1484L115.104 76.7598L116.949 63.9805H120.746L117.037 83H113.504L110.621 70.2734L110.586 70.0449L110.551 70.2559L107.721 83H104.205L100.496 63.9805H104.275L106.191 76.7422ZM148.256 63.9805L148.361 65.9844C148.736 65.2461 149.24 64.6719 149.873 64.2617C150.506 63.8398 151.268 63.6289 152.158 63.6289C152.967 63.6289 153.635 63.793 154.162 64.1211C154.701 64.4375 155.105 64.9355 155.375 65.6152C155.75 65.0059 156.23 64.5254 156.816 64.1738C157.402 63.8105 158.111 63.6289 158.943 63.6289C159.564 63.6289 160.133 63.7344 160.648 63.9453C161.176 64.1445 161.621 64.4668 161.984 64.9121C162.359 65.3574 162.646 65.9258 162.846 66.6172C163.057 67.3086 163.162 68.1406 163.162 69.1133V83H159.26V69.0781C159.26 68.3164 159.096 67.7949 158.768 67.5137C158.451 67.2207 158.041 67.0742 157.537 67.0742C157.057 67.0742 156.676 67.1914 156.395 67.4258C156.113 67.6484 155.908 67.9473 155.779 68.3223V83H151.965V69.0781C151.965 68.3398 151.812 67.8242 151.508 67.5312C151.215 67.2266 150.811 67.0742 150.295 67.0742C149.803 67.0742 149.416 67.1797 149.135 67.3906C148.854 67.6016 148.637 67.8887 148.484 68.252V83H144.582V63.9805H148.256ZM174.992 75.3887L175.713 77.6738L181.057 63.9805H185.715L176.082 85.8828C175.871 86.3633 175.596 86.8789 175.256 87.4297C174.916 87.9922 174.494 88.5137 173.99 88.9941C173.498 89.4746 172.906 89.873 172.215 90.1895C171.523 90.5176 170.715 90.6816 169.789 90.6816C169.402 90.6816 169.01 90.6465 168.611 90.5762C168.225 90.5176 167.879 90.4473 167.574 90.3652L168.172 87.0957C168.254 87.0957 168.365 87.0957 168.506 87.0957C168.646 87.1074 168.793 87.1191 168.945 87.1309C169.098 87.1426 169.238 87.1484 169.367 87.1484C169.508 87.1602 169.619 87.166 169.701 87.166C170.111 87.166 170.475 87.043 170.791 86.7969C171.119 86.5625 171.406 86.2871 171.652 85.9707C171.898 85.666 172.098 85.3613 172.25 85.0566C172.414 84.7637 172.531 84.5645 172.602 84.459L173.85 82.1035L165.764 63.9805H170.404L174.992 75.3887ZM223.754 63.6289C224.094 63.6289 224.434 63.6406 224.773 63.6641C225.113 63.6875 225.436 63.7227 225.74 63.7695C226.057 63.8164 226.344 63.8691 226.602 63.9277C226.859 63.9746 227.076 64.0332 227.252 64.1035L226.654 68.2344C225.365 67.9414 224.094 67.7949 222.84 67.7949C221.434 67.7949 220.297 68.0879 219.43 68.6738C218.574 69.2598 217.941 70.0742 217.531 71.1172V83H213.33V63.9805H217.268L217.461 66.9512C218.234 65.9199 219.148 65.1113 220.203 64.5254C221.27 63.9277 222.453 63.6289 223.754 63.6289ZM241.174 83.3516C239.768 83.3516 238.484 83.1172 237.324 82.6484C236.164 82.1797 235.168 81.5352 234.336 80.7148C233.516 79.8945 232.877 78.9277 232.42 77.8145C231.963 76.6895 231.734 75.4766 231.734 74.1758V73.4551C231.734 71.9434 231.975 70.584 232.455 69.377C232.947 68.1699 233.598 67.1387 234.406 66.2832C235.227 65.4277 236.176 64.7715 237.254 64.3145C238.344 63.8574 239.486 63.6289 240.682 63.6289C242.064 63.6289 243.283 63.8633 244.338 64.332C245.393 64.7891 246.271 65.4395 246.975 66.2832C247.689 67.1152 248.229 68.1055 248.592 69.2539C248.955 70.4023 249.137 71.6621 249.137 73.0332V74.8086H235.953C236.023 75.5469 236.205 76.2324 236.498 76.8652C236.791 77.498 237.172 78.0488 237.641 78.5176C238.121 78.9746 238.678 79.3379 239.311 79.6074C239.955 79.8652 240.658 79.9941 241.42 79.9941C242.486 79.9941 243.465 79.7832 244.355 79.3613C245.258 78.9395 245.99 78.3594 246.553 77.6211L248.838 79.7656C248.533 80.2227 248.141 80.668 247.66 81.1016C247.18 81.5234 246.617 81.9043 245.973 82.2441C245.328 82.5723 244.602 82.8359 243.793 83.0352C242.996 83.2461 242.123 83.3516 241.174 83.3516ZM240.664 67.0215C240.078 67.0215 239.533 67.127 239.029 67.3379C238.525 67.5488 238.074 67.8594 237.676 68.2695C237.277 68.668 236.938 69.1602 236.656 69.7461C236.387 70.3203 236.193 70.9766 236.076 71.7148H244.988V71.3984C244.953 70.8359 244.842 70.2969 244.654 69.7812C244.479 69.2539 244.215 68.7852 243.863 68.375C243.512 67.9648 243.066 67.6367 242.527 67.3906C242 67.1445 241.379 67.0215 240.664 67.0215ZM266.328 77.8496C266.328 77.5332 266.264 77.2461 266.135 76.9883C266.006 76.7188 265.771 76.4785 265.432 76.2676C265.104 76.0449 264.646 75.8398 264.061 75.6523C263.486 75.4648 262.748 75.2832 261.846 75.1074C260.721 74.873 259.701 74.5918 258.787 74.2637C257.885 73.9355 257.105 73.543 256.449 73.0859C255.805 72.6289 255.307 72.1016 254.955 71.5039C254.604 70.8945 254.428 70.1914 254.428 69.3945C254.428 68.6211 254.609 67.8887 254.973 67.1973C255.336 66.4941 255.852 65.8789 256.52 65.3516C257.199 64.8242 258.02 64.4082 258.98 64.1035C259.953 63.7871 261.037 63.6289 262.232 63.6289C263.498 63.6289 264.629 63.7871 265.625 64.1035C266.633 64.4199 267.482 64.8535 268.174 65.4043C268.865 65.9434 269.393 66.582 269.756 67.3203C270.131 68.0586 270.318 68.8496 270.318 69.6934H266.117C266.117 69.3184 266.035 68.9609 265.871 68.6211C265.707 68.2695 265.461 67.959 265.133 67.6895C264.805 67.4199 264.395 67.209 263.902 67.0566C263.422 66.8926 262.865 66.8105 262.232 66.8105C261.6 66.8105 261.049 66.8809 260.58 67.0215C260.123 67.1504 259.742 67.3262 259.438 67.5488C259.133 67.7598 258.904 68.0117 258.752 68.3047C258.611 68.5977 258.541 68.9023 258.541 69.2188C258.541 69.5352 258.594 69.8223 258.699 70.0801C258.816 70.3379 259.027 70.5723 259.332 70.7832C259.637 70.9941 260.059 71.1875 260.598 71.3633C261.137 71.5273 261.834 71.6855 262.689 71.8379C263.885 72.0488 264.957 72.3125 265.906 72.6289C266.867 72.9453 267.682 73.332 268.35 73.7891C269.029 74.2461 269.551 74.791 269.914 75.4238C270.277 76.0449 270.459 76.7773 270.459 77.6211C270.459 78.4648 270.266 79.2383 269.879 79.9414C269.492 80.6445 268.941 81.2539 268.227 81.7695C267.512 82.2734 266.65 82.666 265.643 82.9473C264.646 83.2285 263.527 83.3691 262.285 83.3691C260.902 83.3691 259.684 83.1875 258.629 82.8242C257.574 82.4492 256.689 81.9629 255.975 81.3652C255.26 80.7676 254.715 80.0879 254.34 79.3262C253.977 78.5645 253.795 77.791 253.795 77.0059H257.873C257.908 77.5918 258.061 78.0898 258.33 78.5C258.6 78.9102 258.945 79.2441 259.367 79.502C259.789 79.748 260.258 79.9297 260.773 80.0469C261.289 80.1523 261.811 80.2051 262.338 80.2051C263.639 80.2051 264.629 79.9883 265.309 79.5547C265.988 79.1094 266.328 78.541 266.328 77.8496ZM287.756 80.3984C287.111 81.3359 286.326 82.0684 285.4 82.5957C284.486 83.1113 283.461 83.3691 282.324 83.3691C281.34 83.3691 280.438 83.2168 279.617 82.9121C278.809 82.6074 278.111 82.127 277.525 81.4707C276.951 80.8027 276.5 79.959 276.172 78.9395C275.855 77.9082 275.697 76.6719 275.697 75.2305V63.9805H279.898V75.2656C279.898 76.1797 279.963 76.9355 280.092 77.5332C280.232 78.1309 280.443 78.6055 280.725 78.957C281.006 79.3086 281.357 79.5605 281.779 79.7129C282.201 79.8535 282.705 79.9238 283.291 79.9238C284.416 79.9238 285.324 79.707 286.016 79.2734C286.707 78.8281 287.229 78.2305 287.58 77.4805V63.9805H291.799V83H288.002L287.756 80.3984ZM299.604 63.9805L299.709 65.9844C300.084 65.2461 300.588 64.6719 301.221 64.2617C301.854 63.8398 302.615 63.6289 303.506 63.6289C304.314 63.6289 304.982 63.793 305.51 64.1211C306.049 64.4375 306.453 64.9355 306.723 65.6152C307.098 65.0059 307.578 64.5254 308.164 64.1738C308.75 63.8105 309.459 63.6289 310.291 63.6289C310.912 63.6289 311.48 63.7344 311.996 63.9453C312.523 64.1445 312.969 64.4668 313.332 64.9121C313.707 65.3574 313.994 65.9258 314.193 66.6172C314.404 67.3086 314.51 68.1406 314.51 69.1133V83H310.607V69.0781C310.607 68.3164 310.443 67.7949 310.115 67.5137C309.799 67.2207 309.389 67.0742 308.885 67.0742C308.404 67.0742 308.023 67.1914 307.742 67.4258C307.461 67.6484 307.256 67.9473 307.127 68.3223V83H303.312V69.0781C303.312 68.3398 303.16 67.8242 302.855 67.5312C302.562 67.2266 302.158 67.0742 301.643 67.0742C301.15 67.0742 300.764 67.1797 300.482 67.3906C300.201 67.6016 299.984 67.8887 299.832 68.252V83H295.93V63.9805H299.604ZM327.658 83.3516C326.252 83.3516 324.969 83.1172 323.809 82.6484C322.648 82.1797 321.652 81.5352 320.82 80.7148C320 79.8945 319.361 78.9277 318.904 77.8145C318.447 76.6895 318.219 75.4766 318.219 74.1758V73.4551C318.219 71.9434 318.459 70.584 318.939 69.377C319.432 68.1699 320.082 67.1387 320.891 66.2832C321.711 65.4277 322.66 64.7715 323.738 64.3145C324.828 63.8574 325.971 63.6289 327.166 63.6289C328.549 63.6289 329.768 63.8633 330.822 64.332C331.877 64.7891 332.756 65.4395 333.459 66.2832C334.174 67.1152 334.713 68.1055 335.076 69.2539C335.439 70.4023 335.621 71.6621 335.621 73.0332V74.8086H322.438C322.508 75.5469 322.689 76.2324 322.982 76.8652C323.275 77.498 323.656 78.0488 324.125 78.5176C324.605 78.9746 325.162 79.3379 325.795 79.6074C326.439 79.8652 327.143 79.9941 327.904 79.9941C328.971 79.9941 329.949 79.7832 330.84 79.3613C331.742 78.9395 332.475 78.3594 333.037 77.6211L335.322 79.7656C335.018 80.2227 334.625 80.668 334.145 81.1016C333.664 81.5234 333.102 81.9043 332.457 82.2441C331.812 82.5723 331.086 82.8359 330.277 83.0352C329.48 83.2461 328.607 83.3516 327.658 83.3516ZM327.148 67.0215C326.562 67.0215 326.018 67.127 325.514 67.3379C325.01 67.5488 324.559 67.8594 324.16 68.2695C323.762 68.668 323.422 69.1602 323.141 69.7461C322.871 70.3203 322.678 70.9766 322.561 71.7148H331.473V71.3984C331.438 70.8359 331.326 70.2969 331.139 69.7812C330.963 69.2539 330.699 68.7852 330.348 68.375C329.996 67.9648 329.551 67.6367 329.012 67.3906C328.484 67.1445 327.863 67.0215 327.148 67.0215Z" fill="#E5E5E5"/>
</svg>
