<svg width="385" height="147" viewBox="0 0 385 147" fill="none" xmlns="http://www.w3.org/2000/svg">
<path d="M385 85C332.5 137.565 269 161.012 185.113 137.565C101.226 114.117 0 124.307 0 72.3252C0 20.3437 40.4949 0 135.5 0C203.571 0 385 33.0184 385 85Z" fill="#EB6A67"/>
<path d="M42.7578 73.584L48.084 54.4062H52.6895L44.7793 80H40.7539L32.8613 54.4062H37.4668L42.7578 73.584ZM57.2598 60.9805H67.4023V76.5195H73.0449V80H57.2598V76.5195H63.166V64.4785H57.2598V60.9805ZM62.8145 56.0586C62.8145 55.4023 63.0254 54.8633 63.4473 54.4414C63.8691 54.0078 64.4609 53.791 65.2227 53.791C65.9961 53.791 66.5938 54.0078 67.0156 54.4414C67.4492 54.8633 67.666 55.4023 67.666 56.0586C67.666 56.7148 67.4492 57.2598 67.0156 57.6934C66.5938 58.1152 65.9961 58.3262 65.2227 58.3262C64.4609 58.3262 63.8691 58.1152 63.4473 57.6934C63.0254 57.2598 62.8145 56.7148 62.8145 56.0586ZM86.8262 80.3516C85.4199 80.3516 84.1367 80.1172 82.9766 79.6484C81.8164 79.1797 80.8203 78.5352 79.9883 77.7148C79.168 76.8945 78.5293 75.9277 78.0723 74.8145C77.6152 73.6895 77.3867 72.4766 77.3867 71.1758V70.4551C77.3867 68.9434 77.627 67.584 78.1074 66.377C78.5996 65.1699 79.25 64.1387 80.0586 63.2832C80.8789 62.4277 81.8281 61.7715 82.9062 61.3145C83.9961 60.8574 85.1387 60.6289 86.334 60.6289C87.7168 60.6289 88.9355 60.8633 89.9902 61.332C91.0449 61.7891 91.9238 62.4395 92.627 63.2832C93.3418 64.1152 93.8809 65.1055 94.2441 66.2539C94.6074 67.4023 94.7891 68.6621 94.7891 70.0332V71.8086H81.6055C81.6758 72.5469 81.8574 73.2324 82.1504 73.8652C82.4434 74.498 82.8242 75.0488 83.293 75.5176C83.7734 75.9746 84.3301 76.3379 84.9629 76.6074C85.6074 76.8652 86.3105 76.9941 87.0723 76.9941C88.1387 76.9941 89.1172 76.7832 90.0078 76.3613C90.9102 75.9395 91.6426 75.3594 92.2051 74.6211L94.4902 76.7656C94.1855 77.2227 93.793 77.668 93.3125 78.1016C92.832 78.5234 92.2695 78.9043 91.625 79.2441C90.9805 79.5723 90.2539 79.8359 89.4453 80.0352C88.6484 80.2461 87.7754 80.3516 86.8262 80.3516ZM86.3164 64.0215C85.7305 64.0215 85.1855 64.127 84.6816 64.3379C84.1777 64.5488 83.7266 64.8594 83.3281 65.2695C82.9297 65.668 82.5898 66.1602 82.3086 66.7461C82.0391 67.3203 81.8457 67.9766 81.7285 68.7148H90.6406V68.3984C90.6055 67.8359 90.4941 67.2969 90.3066 66.7812C90.1309 66.2539 89.8672 65.7852 89.5156 65.375C89.1641 64.9648 88.7188 64.6367 88.1797 64.3906C87.6523 64.1445 87.0312 64.0215 86.3164 64.0215ZM103.191 73.7422L103.314 74.9551L103.508 73.7422L106.232 60.9805H108.992L111.752 73.8828L111.945 75.1484L112.104 73.7598L113.949 60.9805H117.746L114.037 80H110.504L107.621 67.2734L107.586 67.0449L107.551 67.2559L104.721 80H101.205L97.4961 60.9805H101.275L103.191 73.7422ZM145.256 60.9805L145.361 62.9844C145.736 62.2461 146.24 61.6719 146.873 61.2617C147.506 60.8398 148.268 60.6289 149.158 60.6289C149.967 60.6289 150.635 60.793 151.162 61.1211C151.701 61.4375 152.105 61.9355 152.375 62.6152C152.75 62.0059 153.23 61.5254 153.816 61.1738C154.402 60.8105 155.111 60.6289 155.943 60.6289C156.564 60.6289 157.133 60.7344 157.648 60.9453C158.176 61.1445 158.621 61.4668 158.984 61.9121C159.359 62.3574 159.646 62.9258 159.846 63.6172C160.057 64.3086 160.162 65.1406 160.162 66.1133V80H156.26V66.0781C156.26 65.3164 156.096 64.7949 155.768 64.5137C155.451 64.2207 155.041 64.0742 154.537 64.0742C154.057 64.0742 153.676 64.1914 153.395 64.4258C153.113 64.6484 152.908 64.9473 152.779 65.3223V80H148.965V66.0781C148.965 65.3398 148.812 64.8242 148.508 64.5312C148.215 64.2266 147.811 64.0742 147.295 64.0742C146.803 64.0742 146.416 64.1797 146.135 64.3906C145.854 64.6016 145.637 64.8887 145.484 65.252V80H141.582V60.9805H145.256ZM171.992 72.3887L172.713 74.6738L178.057 60.9805H182.715L173.082 82.8828C172.871 83.3633 172.596 83.8789 172.256 84.4297C171.916 84.9922 171.494 85.5137 170.99 85.9941C170.498 86.4746 169.906 86.873 169.215 87.1895C168.523 87.5176 167.715 87.6816 166.789 87.6816C166.402 87.6816 166.01 87.6465 165.611 87.5762C165.225 87.5176 164.879 87.4473 164.574 87.3652L165.172 84.0957C165.254 84.0957 165.365 84.0957 165.506 84.0957C165.646 84.1074 165.793 84.1191 165.945 84.1309C166.098 84.1426 166.238 84.1484 166.367 84.1484C166.508 84.1602 166.619 84.166 166.701 84.166C167.111 84.166 167.475 84.043 167.791 83.7969C168.119 83.5625 168.406 83.2871 168.652 82.9707C168.898 82.666 169.098 82.3613 169.25 82.0566C169.414 81.7637 169.531 81.5645 169.602 81.459L170.85 79.1035L162.764 60.9805H167.404L171.992 72.3887ZM220.754 60.6289C221.094 60.6289 221.434 60.6406 221.773 60.6641C222.113 60.6875 222.436 60.7227 222.74 60.7695C223.057 60.8164 223.344 60.8691 223.602 60.9277C223.859 60.9746 224.076 61.0332 224.252 61.1035L223.654 65.2344C222.365 64.9414 221.094 64.7949 219.84 64.7949C218.434 64.7949 217.297 65.0879 216.43 65.6738C215.574 66.2598 214.941 67.0742 214.531 68.1172V80H210.33V60.9805H214.268L214.461 63.9512C215.234 62.9199 216.148 62.1113 217.203 61.5254C218.27 60.9277 219.453 60.6289 220.754 60.6289ZM238.174 80.3516C236.768 80.3516 235.484 80.1172 234.324 79.6484C233.164 79.1797 232.168 78.5352 231.336 77.7148C230.516 76.8945 229.877 75.9277 229.42 74.8145C228.963 73.6895 228.734 72.4766 228.734 71.1758V70.4551C228.734 68.9434 228.975 67.584 229.455 66.377C229.947 65.1699 230.598 64.1387 231.406 63.2832C232.227 62.4277 233.176 61.7715 234.254 61.3145C235.344 60.8574 236.486 60.6289 237.682 60.6289C239.064 60.6289 240.283 60.8633 241.338 61.332C242.393 61.7891 243.271 62.4395 243.975 63.2832C244.689 64.1152 245.229 65.1055 245.592 66.2539C245.955 67.4023 246.137 68.6621 246.137 70.0332V71.8086H232.953C233.023 72.5469 233.205 73.2324 233.498 73.8652C233.791 74.498 234.172 75.0488 234.641 75.5176C235.121 75.9746 235.678 76.3379 236.311 76.6074C236.955 76.8652 237.658 76.9941 238.42 76.9941C239.486 76.9941 240.465 76.7832 241.355 76.3613C242.258 75.9395 242.99 75.3594 243.553 74.6211L245.838 76.7656C245.533 77.2227 245.141 77.668 244.66 78.1016C244.18 78.5234 243.617 78.9043 242.973 79.2441C242.328 79.5723 241.602 79.8359 240.793 80.0352C239.996 80.2461 239.123 80.3516 238.174 80.3516ZM237.664 64.0215C237.078 64.0215 236.533 64.127 236.029 64.3379C235.525 64.5488 235.074 64.8594 234.676 65.2695C234.277 65.668 233.938 66.1602 233.656 66.7461C233.387 67.3203 233.193 67.9766 233.076 68.7148H241.988V68.3984C241.953 67.8359 241.842 67.2969 241.654 66.7812C241.479 66.2539 241.215 65.7852 240.863 65.375C240.512 64.9648 240.066 64.6367 239.527 64.3906C239 64.1445 238.379 64.0215 237.664 64.0215ZM263.328 74.8496C263.328 74.5332 263.264 74.2461 263.135 73.9883C263.006 73.7188 262.771 73.4785 262.432 73.2676C262.104 73.0449 261.646 72.8398 261.061 72.6523C260.486 72.4648 259.748 72.2832 258.846 72.1074C257.721 71.873 256.701 71.5918 255.787 71.2637C254.885 70.9355 254.105 70.543 253.449 70.0859C252.805 69.6289 252.307 69.1016 251.955 68.5039C251.604 67.8945 251.428 67.1914 251.428 66.3945C251.428 65.6211 251.609 64.8887 251.973 64.1973C252.336 63.4941 252.852 62.8789 253.52 62.3516C254.199 61.8242 255.02 61.4082 255.98 61.1035C256.953 60.7871 258.037 60.6289 259.232 60.6289C260.498 60.6289 261.629 60.7871 262.625 61.1035C263.633 61.4199 264.482 61.8535 265.174 62.4043C265.865 62.9434 266.393 63.582 266.756 64.3203C267.131 65.0586 267.318 65.8496 267.318 66.6934H263.117C263.117 66.3184 263.035 65.9609 262.871 65.6211C262.707 65.2695 262.461 64.959 262.133 64.6895C261.805 64.4199 261.395 64.209 260.902 64.0566C260.422 63.8926 259.865 63.8105 259.232 63.8105C258.6 63.8105 258.049 63.8809 257.58 64.0215C257.123 64.1504 256.742 64.3262 256.438 64.5488C256.133 64.7598 255.904 65.0117 255.752 65.3047C255.611 65.5977 255.541 65.9023 255.541 66.2188C255.541 66.5352 255.594 66.8223 255.699 67.0801C255.816 67.3379 256.027 67.5723 256.332 67.7832C256.637 67.9941 257.059 68.1875 257.598 68.3633C258.137 68.5273 258.834 68.6855 259.689 68.8379C260.885 69.0488 261.957 69.3125 262.906 69.6289C263.867 69.9453 264.682 70.332 265.35 70.7891C266.029 71.2461 266.551 71.791 266.914 72.4238C267.277 73.0449 267.459 73.7773 267.459 74.6211C267.459 75.4648 267.266 76.2383 266.879 76.9414C266.492 77.6445 265.941 78.2539 265.227 78.7695C264.512 79.2734 263.65 79.666 262.643 79.9473C261.646 80.2285 260.527 80.3691 259.285 80.3691C257.902 80.3691 256.684 80.1875 255.629 79.8242C254.574 79.4492 253.689 78.9629 252.975 78.3652C252.26 77.7676 251.715 77.0879 251.34 76.3262C250.977 75.5645 250.795 74.791 250.795 74.0059H254.873C254.908 74.5918 255.061 75.0898 255.33 75.5C255.6 75.9102 255.945 76.2441 256.367 76.502C256.789 76.748 257.258 76.9297 257.773 77.0469C258.289 77.1523 258.811 77.2051 259.338 77.2051C260.639 77.2051 261.629 76.9883 262.309 76.5547C262.988 76.1094 263.328 75.541 263.328 74.8496ZM284.756 77.3984C284.111 78.3359 283.326 79.0684 282.4 79.5957C281.486 80.1113 280.461 80.3691 279.324 80.3691C278.34 80.3691 277.438 80.2168 276.617 79.9121C275.809 79.6074 275.111 79.127 274.525 78.4707C273.951 77.8027 273.5 76.959 273.172 75.9395C272.855 74.9082 272.697 73.6719 272.697 72.2305V60.9805H276.898V72.2656C276.898 73.1797 276.963 73.9355 277.092 74.5332C277.232 75.1309 277.443 75.6055 277.725 75.957C278.006 76.3086 278.357 76.5605 278.779 76.7129C279.201 76.8535 279.705 76.9238 280.291 76.9238C281.416 76.9238 282.324 76.707 283.016 76.2734C283.707 75.8281 284.229 75.2305 284.58 74.4805V60.9805H288.799V80H285.002L284.756 77.3984ZM296.604 60.9805L296.709 62.9844C297.084 62.2461 297.588 61.6719 298.221 61.2617C298.854 60.8398 299.615 60.6289 300.506 60.6289C301.314 60.6289 301.982 60.793 302.51 61.1211C303.049 61.4375 303.453 61.9355 303.723 62.6152C304.098 62.0059 304.578 61.5254 305.164 61.1738C305.75 60.8105 306.459 60.6289 307.291 60.6289C307.912 60.6289 308.48 60.7344 308.996 60.9453C309.523 61.1445 309.969 61.4668 310.332 61.9121C310.707 62.3574 310.994 62.9258 311.193 63.6172C311.404 64.3086 311.51 65.1406 311.51 66.1133V80H307.607V66.0781C307.607 65.3164 307.443 64.7949 307.115 64.5137C306.799 64.2207 306.389 64.0742 305.885 64.0742C305.404 64.0742 305.023 64.1914 304.742 64.4258C304.461 64.6484 304.256 64.9473 304.127 65.3223V80H300.312V66.0781C300.312 65.3398 300.16 64.8242 299.855 64.5312C299.562 64.2266 299.158 64.0742 298.643 64.0742C298.15 64.0742 297.764 64.1797 297.482 64.3906C297.201 64.6016 296.984 64.8887 296.832 65.252V80H292.93V60.9805H296.604ZM324.658 80.3516C323.252 80.3516 321.969 80.1172 320.809 79.6484C319.648 79.1797 318.652 78.5352 317.82 77.7148C317 76.8945 316.361 75.9277 315.904 74.8145C315.447 73.6895 315.219 72.4766 315.219 71.1758V70.4551C315.219 68.9434 315.459 67.584 315.939 66.377C316.432 65.1699 317.082 64.1387 317.891 63.2832C318.711 62.4277 319.66 61.7715 320.738 61.3145C321.828 60.8574 322.971 60.6289 324.166 60.6289C325.549 60.6289 326.768 60.8633 327.822 61.332C328.877 61.7891 329.756 62.4395 330.459 63.2832C331.174 64.1152 331.713 65.1055 332.076 66.2539C332.439 67.4023 332.621 68.6621 332.621 70.0332V71.8086H319.438C319.508 72.5469 319.689 73.2324 319.982 73.8652C320.275 74.498 320.656 75.0488 321.125 75.5176C321.605 75.9746 322.162 76.3379 322.795 76.6074C323.439 76.8652 324.143 76.9941 324.904 76.9941C325.971 76.9941 326.949 76.7832 327.84 76.3613C328.742 75.9395 329.475 75.3594 330.037 74.6211L332.322 76.7656C332.018 77.2227 331.625 77.668 331.145 78.1016C330.664 78.5234 330.102 78.9043 329.457 79.2441C328.812 79.5723 328.086 79.8359 327.277 80.0352C326.48 80.2461 325.607 80.3516 324.658 80.3516ZM324.148 64.0215C323.562 64.0215 323.018 64.127 322.514 64.3379C322.01 64.5488 321.559 64.8594 321.16 65.2695C320.762 65.668 320.422 66.1602 320.141 66.7461C319.871 67.3203 319.678 67.9766 319.561 68.7148H328.473V68.3984C328.438 67.8359 328.326 67.2969 328.139 66.7812C327.963 66.2539 327.699 65.7852 327.348 65.375C326.996 64.9648 326.551 64.6367 326.012 64.3906C325.484 64.1445 324.863 64.0215 324.148 64.0215Z" fill="#E5E5E5"/>
</svg>
